# xmcd CD database file
#
# Track frame offsets:
#	150
#	14559
#	33959
#	45013
#	58992
#	71857
#	94804
#	106107
#	128962
#	146052
#	161927
#	186993
#	205186
#	220363
#	236058
#	253053
#	266381
#	283617
#
# Disc length: 4215 seconds
#
# Revision: 0
# Processed by: cddbd v1.5.2PL0 Copyright (c) Steve Scherf et al.
# Submitted via: Feurio! 1.68 - http://www.feurio.com
#
DISCID=16107512
DTITLE=NIMM 3 - Hobos and Heroes
DYEAR=2002
DGENRE=
TTITLE0=Got You On My Mind
TTITLE1=Good Ol' Boy
TTITLE2=Truck Stop Boy
TTITLE3=Route 66
TTITLE4=Money
TTITLE5=Red House
TTITLE6=Something Else
TTITLE7=Don't Think Twice, It's All Right
TTITLE8=Rainy Day Woman - 12&35
TTITLE9=Why Me_
TTITLE10=Fool For Your Stockings
TTITLE11=Someday
TTITLE12=Only A Hobo
TTITLE13=There's A Tear In My Beer
TTITLE14=Feed Jake
TTITLE15=My Old Friend The Blues
TTITLE16=Rock With Me
TTITLE17=Like A Rolling Stone
EXTD=
EXTT0=
EXTT1=
EXTT2=
EXTT3=
EXTT4=
EXTT5=
EXTT6=
EXTT7=
EXTT8=
EXTT9=
EXTT10=
EXTT11=
EXTT12=
EXTT13=
EXTT14=
EXTT15=
EXTT16=
EXTT17=
PLAYORDER=
